# MagicaVoxel @ Ephtracy

# group
o 

# material
mtllib banderita.mtl
usemtl palette

# normals
vn -1 0 0
vn 1 0 0
vn 0 0 1
vn 0 0 -1
vn 0 -1 0
vn 0 1 0

# texcoords
vt 0.498047 0.5
vt 0.666016 0.5
vt 0.814453 0.5

# verts
v -0.7 0 0.1
v -0.7 0 -0.1
v -0.7 2 0.1
v -0.7 2 -0.1
v -0.3 0.9 0.1
v -0.3 0.9 -0.1
v -0.3 1 0.1
v -0.3 1 -0.1
v 0.1 0.8 0.1
v 0.1 0.8 -0.1
v 0.1 0.9 0.1
v 0.1 0.9 -0.1
v 0.2 0.7 0.1
v 0.2 0.7 -0.1
v 0.2 0.8 0.1
v 0.2 0.8 -0.1
v 0.8 1.5 0.1
v 0.8 1.5 -0.1
v 0.8 1.6 0.1
v 0.8 1.6 -0.1
v 0.9 1.6 0.1
v 0.9 1.6 -0.1
v 0.9 1.7 0.1
v 0.9 1.7 -0.1
v 1.2 1.7 0.1
v 1.2 1.7 -0.1
v 1.2 1.8 0.1
v 1.2 1.8 -0.1
v -0.5 0 0.1
v -0.5 0 -0.1
v -0.5 1 0.1
v -0.5 1 -0.1
v 0 1.9 0.1
v 0 1.9 -0.1
v 0 2 0.1
v 0 2 -0.1
v 0.2 1.7 0.1
v 0.2 1.7 -0.1
v 0.2 1.9 0.1
v 0.2 1.9 -0.1
v 0.3 1.6 0.1
v 0.3 1.6 -0.1
v 0.3 1.7 0.1
v 0.3 1.7 -0.1
v 0.4 1.5 0.1
v 0.4 1.5 -0.1
v 0.4 1.6 0.1
v 0.4 1.6 -0.1
v 0.8 0.7 0.1
v 0.8 0.7 -0.1
v 0.8 0.8 0.1
v 0.8 0.8 -0.1
v 0.9 0.8 0.1
v 0.9 0.8 -0.1
v 0.9 0.9 0.1
v 0.9 0.9 -0.1
v 1.1 0.9 0.1
v 1.1 0.9 -0.1
v 1.1 1 0.1
v 1.1 1 -0.1
v 1.2 1 0.1
v 1.2 1 -0.1
v 1.2 1.1 0.1
v 1.2 1.1 -0.1
v 1.3 1.1 0.1
v 1.3 1.1 -0.1
v 1.3 1.8 0.1
v 1.3 1.8 -0.1
v -0.7 0 0.1
v -0.7 2 0.1
v -0.5 0 0.1
v -0.5 1 0.1
v -0.5 1.1 0.1
v -0.5 1.2 0.1
v -0.5 1.5 0.1
v -0.5 2 0.1
v -0.4 1.3 0.1
v -0.4 1.4 0.1
v -0.3 0.9 0.1
v -0.3 1 0.1
v -0.3 1.1 0.1
v -0.3 1.2 0.1
v -0.2 1 0.1
v -0.2 1.3 0.1
v -0.2 1.4 0.1
v -0.2 1.5 0.1
v -0.1 1 0.1
v -0.1 1.5 0.1
v 0 1.1 0.1
v 0 1.4 0.1
v 0 1.9 0.1
v 0 2 0.1
v 0.1 0.8 0.1
v 0.1 0.9 0.1
v 0.1 1.1 0.1
v 0.1 1.4 0.1
v 0.2 0.7 0.1
v 0.2 0.8 0.1
v 0.2 1 0.1
v 0.2 1.5 0.1
v 0.2 1.7 0.1
v 0.2 1.9 0.1
v 0.3 1 0.1
v 0.3 1.1 0.1
v 0.3 1.2 0.1
v 0.3 1.5 0.1
v 0.3 1.6 0.1
v 0.3 1.7 0.1
v 0.4 1.3 0.1
v 0.4 1.4 0.1
v 0.4 1.5 0.1
v 0.4 1.6 0.1
v 0.5 1.1 0.1
v 0.5 1.2 0.1
v 0.6 1 0.1
v 0.6 1.3 0.1
v 0.6 1.4 0.1
v 0.6 1.5 0.1
v 0.8 0.7 0.1
v 0.8 0.8 0.1
v 0.8 1.5 0.1
v 0.8 1.6 0.1
v 0.9 0.8 0.1
v 0.9 0.9 0.1
v 0.9 1.6 0.1
v 0.9 1.7 0.1
v 1.1 0.9 0.1
v 1.1 1 0.1
v 1.2 1 0.1
v 1.2 1.1 0.1
v 1.2 1.7 0.1
v 1.2 1.8 0.1
v 1.3 1.1 0.1
v 1.3 1.8 0.1
v -0.7 0 -0.1
v -0.7 2 -0.1
v -0.5 0 -0.1
v -0.5 1 -0.1
v -0.5 1.3 -0.1
v -0.5 1.4 -0.1
v -0.5 1.5 -0.1
v -0.5 2 -0.1
v -0.4 1.1 -0.1
v -0.4 1.2 -0.1
v -0.3 0.9 -0.1
v -0.3 1 -0.1
v -0.3 1.3 -0.1
v -0.3 1.4 -0.1
v -0.2 1 -0.1
v -0.2 1.1 -0.1
v -0.2 1.2 -0.1
v -0.2 1.5 -0.1
v -0.1 1 -0.1
v -0.1 1.5 -0.1
v 0 1.1 -0.1
v 0 1.4 -0.1
v 0 1.9 -0.1
v 0 2 -0.1
v 0.1 0.8 -0.1
v 0.1 0.9 -0.1
v 0.1 1.1 -0.1
v 0.1 1.4 -0.1
v 0.2 0.7 -0.1
v 0.2 0.8 -0.1
v 0.2 1 -0.1
v 0.2 1.5 -0.1
v 0.2 1.7 -0.1
v 0.2 1.9 -0.1
v 0.3 1 -0.1
v 0.3 1.3 -0.1
v 0.3 1.4 -0.1
v 0.3 1.5 -0.1
v 0.3 1.6 -0.1
v 0.3 1.7 -0.1
v 0.4 1.1 -0.1
v 0.4 1.2 -0.1
v 0.4 1.5 -0.1
v 0.4 1.6 -0.1
v 0.5 1.3 -0.1
v 0.5 1.4 -0.1
v 0.6 1 -0.1
v 0.6 1.1 -0.1
v 0.6 1.2 -0.1
v 0.6 1.5 -0.1
v 0.8 0.7 -0.1
v 0.8 0.8 -0.1
v 0.8 1.5 -0.1
v 0.8 1.6 -0.1
v 0.9 0.8 -0.1
v 0.9 0.9 -0.1
v 0.9 1.6 -0.1
v 0.9 1.7 -0.1
v 1.1 0.9 -0.1
v 1.1 1 -0.1
v 1.2 1 -0.1
v 1.2 1.1 -0.1
v 1.2 1.7 -0.1
v 1.2 1.8 -0.1
v 1.3 1.1 -0.1
v 1.3 1.8 -0.1
v -0.7 0 0.1
v -0.5 0 0.1
v -0.7 0 -0.1
v -0.5 0 -0.1
v 0.2 0.7 0.1
v 0.8 0.7 0.1
v 0.2 0.7 -0.1
v 0.8 0.7 -0.1
v 0.1 0.8 0.1
v 0.2 0.8 0.1
v 0.8 0.8 0.1
v 0.9 0.8 0.1
v 0.1 0.8 -0.1
v 0.2 0.8 -0.1
v 0.8 0.8 -0.1
v 0.9 0.8 -0.1
v -0.3 0.9 0.1
v 0.1 0.9 0.1
v 0.9 0.9 0.1
v 1.1 0.9 0.1
v -0.3 0.9 -0.1
v 0.1 0.9 -0.1
v 0.9 0.9 -0.1
v 1.1 0.9 -0.1
v -0.5 1 0.1
v -0.3 1 0.1
v 1.1 1 0.1
v 1.2 1 0.1
v -0.5 1 -0.1
v -0.3 1 -0.1
v 1.1 1 -0.1
v 1.2 1 -0.1
v 1.2 1.1 0.1
v 1.3 1.1 0.1
v 1.2 1.1 -0.1
v 1.3 1.1 -0.1
v 0.4 1.5 0.1
v 0.6 1.5 0.1
v 0.8 1.5 0.1
v 0.4 1.5 -0.1
v 0.6 1.5 -0.1
v 0.8 1.5 -0.1
v 0.3 1.6 0.1
v 0.4 1.6 0.1
v 0.8 1.6 0.1
v 0.9 1.6 0.1
v 0.3 1.6 -0.1
v 0.4 1.6 -0.1
v 0.8 1.6 -0.1
v 0.9 1.6 -0.1
v 0.2 1.7 0.1
v 0.3 1.7 0.1
v 0.9 1.7 0.1
v 1.2 1.7 0.1
v 0.2 1.7 -0.1
v 0.3 1.7 -0.1
v 0.9 1.7 -0.1
v 1.2 1.7 -0.1
v 1.2 1.8 0.1
v 1.3 1.8 0.1
v 1.2 1.8 -0.1
v 1.3 1.8 -0.1
v 0 1.9 0.1
v 0.2 1.9 0.1
v 0 1.9 -0.1
v 0.2 1.9 -0.1
v -0.7 2 0.1
v -0.5 2 0.1
v 0 2 0.1
v -0.7 2 -0.1
v -0.5 2 -0.1
v 0 2 -0.1

# faces
f 3/1/1 2/1/1 1/1/1
f 4/1/1 2/1/1 3/1/1
f 7/2/1 6/2/1 5/2/1
f 8/2/1 6/2/1 7/2/1
f 11/2/1 10/2/1 9/2/1
f 12/2/1 10/2/1 11/2/1
f 15/2/1 14/2/1 13/2/1
f 16/2/1 14/2/1 15/2/1
f 19/2/1 18/2/1 17/2/1
f 20/2/1 18/2/1 19/2/1
f 23/2/1 22/2/1 21/2/1
f 24/2/1 22/2/1 23/2/1
f 27/2/1 26/2/1 25/2/1
f 28/2/1 26/2/1 27/2/1
f 29/1/2 30/1/2 31/1/2
f 31/1/2 30/1/2 32/1/2
f 33/2/2 34/2/2 35/2/2
f 35/2/2 34/2/2 36/2/2
f 37/2/2 38/2/2 39/2/2
f 39/2/2 38/2/2 40/2/2
f 41/2/2 42/2/2 43/2/2
f 43/2/2 42/2/2 44/2/2
f 45/2/2 46/2/2 47/2/2
f 47/2/2 46/2/2 48/2/2
f 49/2/2 50/2/2 51/2/2
f 51/2/2 50/2/2 52/2/2
f 53/2/2 54/2/2 55/2/2
f 55/2/2 54/2/2 56/2/2
f 57/2/2 58/2/2 59/2/2
f 59/2/2 58/2/2 60/2/2
f 61/2/2 62/2/2 63/2/2
f 63/2/2 62/2/2 64/2/2
f 65/2/2 66/2/2 67/2/2
f 67/2/2 66/2/2 68/2/2
f 71/1/3 70/1/3 69/1/3
f 72/1/3 70/1/3 71/1/3
f 73/1/3 70/1/3 72/1/3
f 74/1/3 70/1/3 73/1/3
f 75/1/3 70/1/3 74/1/3
f 76/1/3 70/1/3 75/1/3
f 77/3/3 75/3/3 74/3/3
f 78/3/3 75/3/3 77/3/3
f 80/3/3 73/3/3 72/3/3
f 81/2/3 74/2/3 73/2/3
f 81/3/3 73/3/3 80/3/3
f 82/3/3 77/3/3 74/3/3
f 82/2/3 74/2/3 81/2/3
f 83/2/3 80/2/3 79/2/3
f 83/3/3 81/3/3 80/3/3
f 83/3/3 82/3/3 81/3/3
f 84/3/3 77/3/3 82/3/3
f 84/3/3 82/3/3 83/3/3
f 84/2/3 78/2/3 77/2/3
f 85/3/3 75/3/3 78/3/3
f 85/2/3 78/2/3 84/2/3
f 86/2/3 76/2/3 75/2/3
f 86/3/3 75/3/3 85/3/3
f 87/2/3 84/2/3 83/2/3
f 87/2/3 83/2/3 79/2/3
f 87/2/3 86/2/3 85/2/3
f 87/2/3 85/2/3 84/2/3
f 88/2/3 76/2/3 86/2/3
f 88/2/3 86/2/3 87/2/3
f 89/3/3 88/3/3 87/3/3
f 90/3/3 88/3/3 89/3/3
f 91/2/3 76/2/3 88/2/3
f 92/2/3 76/2/3 91/2/3
f 94/2/3 87/2/3 79/2/3
f 95/3/3 89/3/3 87/3/3
f 95/2/3 90/2/3 89/2/3
f 96/3/3 88/3/3 90/3/3
f 96/2/3 90/2/3 95/2/3
f 98/2/3 94/2/3 93/2/3
f 99/3/3 95/3/3 87/3/3
f 99/2/3 87/2/3 94/2/3
f 99/2/3 94/2/3 98/2/3
f 99/3/3 96/3/3 95/3/3
f 100/3/3 88/3/3 96/3/3
f 100/3/3 96/3/3 99/3/3
f 100/2/3 91/2/3 88/2/3
f 101/2/3 91/2/3 100/2/3
f 102/2/3 91/2/3 101/2/3
f 103/2/3 98/2/3 97/2/3
f 103/2/3 99/2/3 98/2/3
f 103/2/3 101/2/3 100/2/3
f 103/2/3 100/2/3 99/2/3
f 104/2/3 101/2/3 103/2/3
f 105/2/3 101/2/3 104/2/3
f 106/2/3 101/2/3 105/2/3
f 107/2/3 101/2/3 106/2/3
f 108/2/3 101/2/3 107/2/3
f 109/3/3 106/3/3 105/3/3
f 110/3/3 106/3/3 109/3/3
f 111/2/3 107/2/3 106/2/3
f 111/3/3 106/3/3 110/3/3
f 112/2/3 107/2/3 111/2/3
f 113/3/3 104/3/3 103/3/3
f 113/2/3 105/2/3 104/2/3
f 114/3/3 109/3/3 105/3/3
f 114/2/3 105/2/3 113/2/3
f 115/2/3 103/2/3 97/2/3
f 115/3/3 113/3/3 103/3/3
f 115/3/3 114/3/3 113/3/3
f 116/3/3 109/3/3 114/3/3
f 116/3/3 114/3/3 115/3/3
f 116/2/3 110/2/3 109/2/3
f 117/3/3 111/3/3 110/3/3
f 117/2/3 110/2/3 116/2/3
f 118/3/3 111/3/3 117/3/3
f 119/2/3 115/2/3 97/2/3
f 119/2/3 116/2/3 115/2/3
f 119/2/3 118/2/3 117/2/3
f 119/2/3 117/2/3 116/2/3
f 120/2/3 118/2/3 119/2/3
f 121/2/3 118/2/3 120/2/3
f 123/2/3 121/2/3 120/2/3
f 123/2/3 122/2/3 121/2/3
f 124/2/3 122/2/3 123/2/3
f 125/2/3 122/2/3 124/2/3
f 127/2/3 125/2/3 124/2/3
f 127/2/3 126/2/3 125/2/3
f 128/2/3 126/2/3 127/2/3
f 129/2/3 126/2/3 128/2/3
f 130/2/3 126/2/3 129/2/3
f 131/2/3 126/2/3 130/2/3
f 133/2/3 131/2/3 130/2/3
f 133/2/3 132/2/3 131/2/3
f 134/2/3 132/2/3 133/2/3
f 135/1/4 136/1/4 137/1/4
f 137/1/4 136/1/4 138/1/4
f 138/1/4 136/1/4 139/1/4
f 139/1/4 136/1/4 140/1/4
f 140/1/4 136/1/4 141/1/4
f 141/1/4 136/1/4 142/1/4
f 138/3/4 139/3/4 143/3/4
f 143/3/4 139/3/4 144/3/4
f 138/3/4 143/3/4 146/3/4
f 139/2/4 140/2/4 147/2/4
f 144/3/4 139/3/4 147/3/4
f 140/3/4 141/3/4 148/3/4
f 147/2/4 140/2/4 148/2/4
f 145/2/4 146/2/4 149/2/4
f 146/3/4 143/3/4 149/3/4
f 143/2/4 144/2/4 150/2/4
f 149/3/4 143/3/4 150/3/4
f 144/3/4 147/3/4 151/3/4
f 150/2/4 144/2/4 151/2/4
f 147/3/4 148/3/4 151/3/4
f 141/2/4 142/2/4 152/2/4
f 151/3/4 148/3/4 152/3/4
f 148/3/4 141/3/4 152/3/4
f 150/2/4 151/2/4 153/2/4
f 145/2/4 149/2/4 153/2/4
f 151/2/4 152/2/4 153/2/4
f 149/2/4 150/2/4 153/2/4
f 152/2/4 142/2/4 154/2/4
f 153/2/4 152/2/4 154/2/4
f 153/3/4 154/3/4 155/3/4
f 155/3/4 154/3/4 156/3/4
f 154/2/4 142/2/4 157/2/4
f 157/2/4 142/2/4 158/2/4
f 145/2/4 153/2/4 160/2/4
f 153/3/4 155/3/4 161/3/4
f 155/2/4 156/2/4 161/2/4
f 156/3/4 154/3/4 162/3/4
f 161/2/4 156/2/4 162/2/4
f 159/2/4 160/2/4 164/2/4
f 153/3/4 161/3/4 165/3/4
f 160/2/4 153/2/4 165/2/4
f 164/2/4 160/2/4 165/2/4
f 161/3/4 162/3/4 165/3/4
f 162/3/4 154/3/4 166/3/4
f 165/3/4 162/3/4 166/3/4
f 154/2/4 157/2/4 166/2/4
f 166/2/4 157/2/4 167/2/4
f 167/2/4 157/2/4 168/2/4
f 163/2/4 164/2/4 169/2/4
f 164/2/4 165/2/4 169/2/4
f 166/2/4 167/2/4 169/2/4
f 165/2/4 166/2/4 169/2/4
f 169/2/4 167/2/4 170/2/4
f 170/2/4 167/2/4 171/2/4
f 171/2/4 167/2/4 172/2/4
f 172/2/4 167/2/4 173/2/4
f 173/2/4 167/2/4 174/2/4
f 169/3/4 170/3/4 175/3/4
f 175/3/4 170/3/4 176/3/4
f 171/3/4 172/3/4 177/3/4
f 172/2/4 173/2/4 177/2/4
f 177/2/4 173/2/4 178/2/4
f 170/2/4 171/2/4 179/2/4
f 176/3/4 170/3/4 179/3/4
f 171/3/4 177/3/4 180/3/4
f 179/2/4 171/2/4 180/2/4
f 163/2/4 169/2/4 181/2/4
f 169/3/4 175/3/4 181/3/4
f 175/2/4 176/2/4 182/2/4
f 181/3/4 175/3/4 182/3/4
f 176/3/4 179/3/4 183/3/4
f 182/2/4 176/2/4 183/2/4
f 179/3/4 180/3/4 183/3/4
f 180/3/4 177/3/4 184/3/4
f 183/3/4 180/3/4 184/3/4
f 182/2/4 183/2/4 185/2/4
f 181/2/4 182/2/4 185/2/4
f 183/2/4 184/2/4 185/2/4
f 163/2/4 181/2/4 185/2/4
f 185/2/4 184/2/4 186/2/4
f 186/2/4 184/2/4 187/2/4
f 186/2/4 187/2/4 189/2/4
f 187/2/4 188/2/4 189/2/4
f 189/2/4 188/2/4 190/2/4
f 190/2/4 188/2/4 191/2/4
f 190/2/4 191/2/4 193/2/4
f 191/2/4 192/2/4 193/2/4
f 193/2/4 192/2/4 194/2/4
f 194/2/4 192/2/4 195/2/4
f 195/2/4 192/2/4 196/2/4
f 196/2/4 192/2/4 197/2/4
f 196/2/4 197/2/4 199/2/4
f 197/2/4 198/2/4 199/2/4
f 199/2/4 198/2/4 200/2/4
f 203/1/5 202/1/5 201/1/5
f 204/1/5 202/1/5 203/1/5
f 207/2/5 206/2/5 205/2/5
f 208/2/5 206/2/5 207/2/5
f 213/2/5 210/2/5 209/2/5
f 214/2/5 210/2/5 213/2/5
f 215/2/5 212/2/5 211/2/5
f 216/2/5 212/2/5 215/2/5
f 221/2/5 218/2/5 217/2/5
f 222/2/5 218/2/5 221/2/5
f 223/2/5 220/2/5 219/2/5
f 224/2/5 220/2/5 223/2/5
f 229/3/5 226/3/5 225/3/5
f 230/3/5 226/3/5 229/3/5
f 231/2/5 228/2/5 227/2/5
f 232/2/5 228/2/5 231/2/5
f 235/2/5 234/2/5 233/2/5
f 236/2/5 234/2/5 235/2/5
f 237/3/6 238/3/6 240/3/6
f 238/2/6 239/2/6 241/2/6
f 240/3/6 238/3/6 241/3/6
f 241/2/6 239/2/6 242/2/6
f 243/2/6 244/2/6 247/2/6
f 247/2/6 244/2/6 248/2/6
f 245/2/6 246/2/6 249/2/6
f 249/2/6 246/2/6 250/2/6
f 251/2/6 252/2/6 255/2/6
f 255/2/6 252/2/6 256/2/6
f 253/2/6 254/2/6 257/2/6
f 257/2/6 254/2/6 258/2/6
f 259/2/6 260/2/6 261/2/6
f 261/2/6 260/2/6 262/2/6
f 263/2/6 264/2/6 265/2/6
f 265/2/6 264/2/6 266/2/6
f 267/1/6 268/1/6 270/1/6
f 268/2/6 269/2/6 271/2/6
f 270/1/6 268/1/6 271/1/6
f 271/2/6 269/2/6 272/2/6
